#!OML:ASF H:\Terrain\Walking\May29\JustinRory\Justin.ASF
:FULLY-SPECIFIED
:DEGREES
837
root 10.3107 17.5493 7.66968 -187.538 -60.1959 190.427
lowerback 7.27954 -5.94876 -2.2733
upperback 0.262896 -8.07183 1.9115
thorax -3.19018 -3.98483 4.00156
lowerneck -0.283964 -14.0072 -20.155
upperneck 8.83496 -20.4563 16.9477
head 6.57283 -10.2074 6.77889
rclavicle -1.88845e-014 -1.59028e-015
rhumerus -24.2482 -2.07676 -70.7601
rradius 70.3954
rwrist -20.7002
rhand -19.2028 21.0334
rfingers 7.12502
rthumb 7.10941 -8.82724
lclavicle -1.88845e-014 -1.59028e-015
lhumerus -1.54809 -43.4312 91.2212
lradius 63.0901
lwrist -3.45191
lhand 4.8019 29.0226
lfingers 7.12502
lthumb 30.181 56.577
rfemur -14.5247 -6.77216 13.868
rtibia 25.8837
rfoot -5.36489 -16.75
rtoes 9.48846
lfemur -3.68718 -2.84298 5.46251
ltibia 26.8086
lfoot -4.81508 14.9722
ltoes -10.2119
838
root 10.2694 17.5083 7.77308 -187.106 -60.5093 189.898
lowerback 7.38958 -5.94807 -2.59917
upperback 0.336664 -8.10131 1.85348
thorax -3.13597 -3.99748 4.12821
lowerneck -0.3026 -14.1968 -20.0397
upperneck 8.54235 -20.6599 16.9263
head 6.50892 -10.2981 6.72298
rclavicle -3.32964e-014 2.78299e-015
rhumerus -25.7823 -2.73488 -70.9259
rradius 70.717
rwrist -20.359
rhand -20.8844 20.0781
rfingers 7.12502
rthumb 5.48596 -9.83086
lclavicle -3.32964e-014 2.78299e-015
lhumerus -3.20767 -40.6479 91.9198
lradius 62.2378
lwrist -3.97541
lhand 4.59658 29.3068
lfingers 7.12502
lthumb 29.9851 56.8968
rfemur -14.6029 -6.92477 13.084
rtibia 26.0866
rfoot -5.30156 -16.7927
rtoes 10.9699
lfemur -3.94781 -2.94156 5.25709
ltibia 26.9468
lfoot -6.21461 13.9223
ltoes -12.5293
839
root 10.2313 17.4699 7.88103 -187.677 -60.7094 190.447
lowerback 7.42822 -5.90275 -2.12874
upperback 0.557087 -8.00867 1.72228
thorax -3.0193 -3.96475 3.72084
lowerneck -0.45283 -14.4679 -19.8746
upperneck 8.45606 -21.0382 17.1372
head 6.5869 -10.4619 6.69166
rclavicle -2.89729e-014 8.34896e-015
rhumerus -27.6254 -4.10228 -71.3573
rradius 71.232
rwrist -19.2037
rhand -21.7396 20.093
rfingers 7.12502
rthumb 4.66019 -9.83576
lclavicle -2.89729e-014 8.34896e-015
lhumerus -4.61294 -38.3319 92.0129
lradius 61.7386
lwrist -4.03825
lhand 4.1765 30.399
lfingers 7.12502
lthumb 29.5842 58.0607
rfemur -14.6404 -6.71268 12.8918
rtibia 26.3333
rfoot -5.47083 -17.3378
rtoes 10.0261
lfemur -4.15256 -2.59008 5.6593
ltibia 27.2855
lfoot -7.35207 12.1955
ltoes -16.1708
840
root 10.1949 17.4465 7.99097 -188.273 -60.7839 191.077
lowerback 7.47822 -5.9048 -1.58085
upperback 0.738838 -7.97262 1.63456
thorax -2.94804 -3.95838 3.32543
lowerneck -0.309409 -14.6095 -19.8801
upperneck 7.92464 -21.2317 17.5179
head 6.48088 -10.5536 6.79752
rclavicle -1.15047e-013 1.66979e-014
rhumerus -29.3661 -5.30199 -71.9314
rradius 71.8674
rwrist -18.0688
rhand -22.3109 20.4765
rfingers 7.12502
rthumb 4.10855 -9.46361
lclavicle -1.15047e-013 1.66979e-014
lhumerus -6.0086 -35.5765 91.9814
lradius 61.345
lwrist -3.91919
lhand 3.92922 31.8416
lfingers 7.12502
lthumb 29.3481 59.5449
rfemur -14.7635 -6.46325 12.7991
rtibia 26.5788
rfoot -5.52213 -17.7621
rtoes 8.76792
lfemur -4.38236 -2.01434 6.05685
ltibia 27.7768
lfoot -7.83323 10.3981
ltoes -22.4964
841
root 10.1597 17.3979 8.09942 -188.694 -60.9209 191.54
lowerback 7.5151 -5.87883 -1.16386
upperback 0.882706 -7.90968 1.51374
thorax -2.89666 -3.93484 2.96613
lowerneck 0.0474464 -14.672 -19.8736
upperneck 7.23346 -21.3598 18.0615
head 6.29692 -10.6266 6.9849
rclavicle 1.47498e-013 -1.43125e-014
rhumerus -30.8226 -5.63505 -72.5273
rradius 72.5295
rwrist -17.7951
rhand -23.5426 20.2892
rfingers 7.12502
rthumb 2.91911 -9.67052
lclavicle 1.47498e-013 -1.43125e-014
lhumerus -7.28268 -32.4389 92.0617
lradius 60.6891
lwrist -4.10517
lhand 4.24055 32.7275
lfingers 7.12502
lthumb 29.6453 60.3784
rfemur -14.9579 -6.31051 12.6003
rtibia 26.874
rfoot -5.39631 -18.0973
rtoes 7.83202
lfemur -4.65801 -1.29295 6.34262
ltibia 28.381
lfoot -8.24235 8.80748
ltoes -27.8569
842
root 10.1213 17.3617 8.20719 -189.016 -61.1937 191.857
lowerback 7.47236 -5.72043 -0.976162
upperback 1.1449 -7.69208 1.38739
thorax -2.65542 -3.8367 2.69344
lowerneck 0.296387 -14.9307 -19.4198
upperneck 6.49819 -21.7155 18.4245
head 6.09176 -10.802 7.00825
rclavicle 1.89839e-014 -1.82882e-014
rhumerus -32.1006 -6.16016 -73.1118
rradius 73.1463
rwrist -17.9227
rhand -25.1772 19.8125
rfingers 7.12502
rthumb 1.34045 -10.1631
lclavicle 1.89839e-014 -1.82882e-014
lhumerus -8.08763 -29.638 92.0391
lradius 59.9383
lwrist -4.25456
lhand 4.65456 33.4296
lfingers 7.12502
lthumb 30.0404 61.0095
rfemur -15.0633 -6.22602 12.2906
rtibia 27.1852
rfoot -5.32069 -18.4603
rtoes 5.93353
lfemur -5.00543 -0.808036 6.4569
ltibia 29.0928
lfoot -9.21156 7.41241
ltoes -30.3842
843
root 10.0786 17.3241 8.31882 -188.973 -61.5188 191.714
lowerback 7.50552 -5.70387 -1.21202
upperback 1.33429 -7.6942 1.38707
thorax -2.44682 -3.84323 2.81064
lowerneck 0.418298 -15.0588 -19.3449
upperneck 6.02872 -21.889 18.7521
head 5.99379 -10.8896 7.08786
rclavicle -3.80673e-014 1.59028e-015
rhumerus -33.39 -6.5436 -73.8192
rradius 73.6393
rwrist -18.2501
rhand -26.1577 19.7598
rfingers 7.12502
rthumb 0.39347 -10.2196
lclavicle -3.80673e-014 1.59028e-015
lhumerus -9.00517 -26.4195 91.9934
lradius 59.4055
lwrist -4.1418
lhand 4.10392 34.6439
lfingers 7.12502
lthumb 29.5149 62.3179
rfemur -15.139 -6.41729 11.6777
rtibia 27.5522
rfoot -5.31334 -18.4586
rtoes 4.45755
lfemur -5.36715 -0.277289 6.2596
ltibia 29.7551
lfoot -10.3048 5.92086
ltoes -32.4045
